<?xml version="1.0" ?><!DOCTYPE svg  PUBLIC '-//W3C//DTD SVG 1.1//EN'  'http://www.w3.org/Graphics/SVG/1.1/DTD/svg11.dtd'><svg enable-background="new 0 0 512 512" height="512px" id="Слой_1" version="1.1" viewBox="0 0 512 512" width="512px" xml:space="preserve" xmlns="http://www.w3.org/2000/svg" xmlns:xlink="http://www.w3.org/1999/xlink"><g id="vimeo"><g><path d="M512,256c-0.016,141.395-114.615,255.988-255.996,255.988C114.619,511.988,0.012,397.395,0,256    C0.012,114.627,114.619,0.018,256.004,0.012C397.385,0.018,511.984,114.627,512,256z" fill="#00B7EB"/><path d="M325.05,168.609l-52.335,52.336l-57.757-57.758l-30.741,30.75l-13.469-13.461l-58.434,58.43    l132.885,132.889l-26.101,38.654l94.866,94.867c104.615-24.227,184.652-112.508,196.488-221.35L387.51,161.031l-28.242,41.813    L325.05,168.609z" opacity="0.1"/></g><path d="M401.283,210.625c-1.359,29.547-21.977,70.021-61.866,121.389   c-41.257,53.631-75.999,82.842-104.554,82.842c-17.663,0.008-32.796-18.719-45.021-51.373   c-8.172-29.969-16.328-59.93-24.492-89.875c-9.086-32.639-18.484-51.639-29.227-49.014c-2.203,0.555-10.219,4.789-23.809,14.313   L98.037,220.5c14.98-13.172,29.758-26.336,44.266-39.5c19.969-17.281,34.969-26.375,44.953-27.266   c23.624-2.266,38.154,13.875,43.607,48.453c5.891,37.297,9.984,60.498,12.258,69.568c6.82,30.961,14.297,46.406,22.484,46.414   c6.352-0.008,15.891-10.047,28.609-30.125c12.719-20.07,19.516-35.326,20.43-45.842c1.813-17.313-5-26-20.43-26   c-7.258,0-16.086,3.703-23.773,7.016c13.313-39.977,44.719-74.641,86.771-73.297C388.377,150.828,403.08,171.047,401.283,210.625z" fill="#F4F6F9" id="Vimeo_2_"/></g></svg>